<svg xmlns="http://www.w3.org/2000/svg" viewBox="0 0 181 209"><defs><style>.cls-1{fill:#121a3e;}.cls-2{fill:#979aa0;}.cls-3{fill:#46586c;}.cls-4{fill:#a0a3aa;}.cls-5{fill:#b5b6ba;}.cls-6{fill:#262626;}.cls-7{fill:#272728;}.cls-8{fill:#e1b91b;}.cls-9{font-size:35px;fill:#fff;font-family:Aller;}.cls-10{letter-spacing:-0.02em;}</style></defs><title>Logo Empire</title><g id="Fondo"><polygon class="cls-1" points="181 156.75 181 52.25 90.5 0 0 52.25 0 156.75 90.5 209 181 156.75"/></g><g id="Castillo_pequeno" data-name="Castillo pequeno"><polygon class="cls-2" points="74.49 137.43 89.01 137.43 89.01 110.62 71.79 110.62 57.05 110.62 57.05 137.43 71.58 137.43 74.49 137.43"/><rect class="cls-3" x="57.06" y="108.18" width="14.74" height="1.22"/><rect class="cls-3" x="57.06" y="109.4" width="14.74" height="1.22"/><polygon class="cls-4" points="106.44 137.43 109.35 137.43 124.25 137.43 124.25 110.62 109.56 110.62 91.92 110.62 91.92 137.43 106.44 137.43"/><rect class="cls-3" x="109.56" y="108.18" width="14.68" height="1.22"/><rect class="cls-3" x="89.01" y="110.62" width="1.45" height="26.81"/><rect class="cls-3" x="109.56" y="109.4" width="14.68" height="1.22"/><rect class="cls-3" x="90.46" y="110.62" width="1.45" height="26.81"/><rect class="cls-4" x="4.17" y="110.62" width="14.74" height="26.81"/><polygon class="cls-3" points="2.72 137.43 2.72 110.62 1.69 110.62 1.69 108.18 1.27 108.18 1.27 139.87 1.48 139.87 1.48 137.43 2.72 137.43"/><rect class="cls-3" x="2.72" y="110.62" width="1.45" height="26.81"/><polygon class="cls-5" points="36.34 137.43 39.25 137.43 54.15 137.43 54.15 110.62 39.47 110.62 21.82 110.62 21.82 137.43 36.34 137.43"/><rect class="cls-3" x="39.47" y="108.18" width="14.68" height="1.22"/><polygon class="cls-3" points="55.6 109.4 57.05 109.4 57.05 108.18 54.15 108.18 54.15 109.4 55.6 109.4"/><polygon class="cls-3" points="57.05 137.43 57.05 110.62 57.05 109.4 55.6 109.4 55.6 137.43 57.05 137.43"/><rect class="cls-3" x="18.91" y="110.62" width="1.45" height="26.81"/><rect class="cls-3" x="39.47" y="109.4" width="14.68" height="1.22"/><polygon class="cls-3" points="54.15 137.43 55.6 137.43 55.6 109.4 54.15 109.4 54.15 110.62 54.15 137.43"/><rect class="cls-3" x="20.37" y="110.62" width="1.45" height="26.81"/><polygon class="cls-4" points="144.59 137.43 159.11 137.43 159.11 110.62 141.89 110.62 127.15 110.62 127.15 137.43 141.68 137.43 144.59 137.43"/><rect class="cls-3" x="127.15" y="108.18" width="14.74" height="1.22"/><polygon class="cls-3" points="125.7 109.4 127.15 109.4 127.15 108.18 124.25 108.18 124.25 109.4 125.7 109.4"/><polygon class="cls-3" points="124.25 137.43 125.7 137.43 125.7 109.4 124.25 109.4 124.25 110.62 124.25 137.43"/><rect class="cls-3" x="127.15" y="109.4" width="14.74" height="1.22"/><polygon class="cls-3" points="127.15 137.43 127.15 110.62 127.15 109.4 125.7 109.4 125.7 137.43 127.15 137.43"/><rect class="cls-2" x="162.02" y="110.62" width="14.74" height="26.81"/><polygon class="cls-3" points="178.21 137.43 179.45 137.43 179.45 139.87 179.66 139.87 179.66 110.62 178.21 110.62 178.21 137.43"/><rect class="cls-3" x="159.11" y="110.62" width="1.45" height="26.81"/><rect class="cls-3" x="176.75" y="110.62" width="1.45" height="26.81"/><rect class="cls-3" x="160.56" y="110.62" width="1.45" height="26.81"/><polygon class="cls-4" points="91.92 139.87 89.01 139.87 74.49 139.87 74.49 166.68 88.82 166.68 91.73 166.68 106.44 166.68 106.44 139.87 91.92 139.87"/><rect class="cls-3" x="74.49" y="137.43" width="14.52" height="1.22"/><rect class="cls-3" x="89.01" y="137.43" width="1.45" height="1.22"/><rect class="cls-3" x="91.92" y="137.43" width="14.52" height="1.22"/><rect class="cls-3" x="90.46" y="137.43" width="1.45" height="1.22"/><rect class="cls-3" x="74.49" y="138.65" width="14.52" height="1.22"/><rect class="cls-3" x="91.92" y="138.65" width="14.52" height="1.22"/><polygon class="cls-3" points="91.92 139.87 91.92 138.65 90.46 138.65 89.01 138.65 89.01 139.87 91.92 139.87"/><polygon class="cls-2" points="124.06 166.68 126.97 166.68 141.68 166.68 141.68 139.87 127.15 139.87 124.25 139.87 109.35 139.87 109.35 166.68 124.06 166.68"/><rect class="cls-3" x="109.35" y="137.43" width="14.9" height="1.22"/><rect class="cls-3" x="124.25" y="137.43" width="1.45" height="1.22"/><rect class="cls-3" x="127.15" y="137.43" width="14.52" height="1.22"/><rect class="cls-3" x="125.7" y="137.43" width="1.45" height="1.22"/><polygon class="cls-3" points="107.89 138.65 109.35 138.65 109.35 137.43 106.44 137.43 106.44 138.65 107.89 138.65"/><rect class="cls-3" x="106.44" y="139.87" width="1.45" height="26.81"/><rect class="cls-3" x="106.44" y="138.65" width="1.45" height="1.22"/><rect class="cls-3" x="109.35" y="138.65" width="14.9" height="1.22"/><rect class="cls-3" x="127.15" y="138.65" width="14.52" height="1.22"/><polygon class="cls-3" points="127.15 139.87 127.15 138.65 125.7 138.65 124.25 138.65 124.25 139.87 127.15 139.87"/><rect class="cls-3" x="107.89" y="139.87" width="1.45" height="26.81"/><rect class="cls-3" x="107.89" y="138.65" width="1.45" height="1.22"/><polygon class="cls-2" points="21.63 166.68 36.34 166.68 36.34 139.87 21.82 139.87 18.91 139.87 4.39 139.87 4.39 159.28 17.2 166.68 18.73 166.68 21.63 166.68"/><polygon class="cls-3" points="2.72 139.87 1.48 139.87 1.48 157.6 2.72 158.32 2.72 139.87"/><polygon class="cls-3" points="2.93 139.87 2.72 139.87 2.72 158.32 2.93 158.44 2.93 139.87"/><polygon class="cls-3" points="2.72 138.65 2.72 137.43 1.48 137.43 1.48 139.87 2.72 139.87 2.72 138.65"/><rect class="cls-3" x="2.72" y="138.65" width="0.21" height="1.22"/><polygon class="cls-3" points="18.91 138.65 18.91 137.43 4.17 137.43 2.72 137.43 2.72 138.65 2.93 138.65 18.91 138.65"/><rect class="cls-3" x="18.91" y="137.43" width="1.45" height="1.22"/><rect class="cls-3" x="21.82" y="137.43" width="14.52" height="1.22"/><rect class="cls-3" x="20.37" y="137.43" width="1.45" height="1.22"/><polygon class="cls-3" points="2.93 139.87 2.93 158.44 4.39 159.28 4.39 139.87 2.93 139.87"/><polygon class="cls-3" points="18.91 139.87 18.91 138.65 2.93 138.65 2.93 139.87 4.39 139.87 18.91 139.87"/><rect class="cls-3" x="21.82" y="138.65" width="14.52" height="1.22"/><polygon class="cls-3" points="21.82 139.87 21.82 138.65 20.37 138.65 18.91 138.65 18.91 139.87 21.82 139.87"/><path class="cls-6" d="M54,166.68H71.58V139.87H39.25v26.81Zm6.29-19h1.83l4,9.87H64.47l-1.25-3.1H59.05l-1.23,3.1H56.25Zm-14.59,0h1.66l3.77,5a27.78,27.78,0,0,1,2.11,3.21h0a36.77,36.77,0,0,1-.18-4.06V147.7h1.43v9.87H53l-3.74-5a29.93,29.93,0,0,1-2.2-3.29H47c.09,1.25.12,2.43.12,4.07v4.22H45.66Z" transform="translate(0 0)"/><path class="cls-7" d="M61.75,150.63c-.26-.65-.44-1.23-.61-1.8h0c-.17.58-.36,1.18-.59,1.78l-1.15,2.86H62.9Z" transform="translate(0 0)"/><rect class="cls-3" x="57.06" y="137.43" width="14.52" height="1.22"/><rect class="cls-3" x="55.6" y="137.43" width="1.45" height="1.22"/><rect class="cls-3" x="39.25" y="137.43" width="14.9" height="1.22"/><rect class="cls-3" x="54.15" y="137.43" width="1.45" height="1.22"/><polygon class="cls-3" points="74.49 138.65 74.49 137.43 71.58 137.43 71.58 138.65 73.03 138.65 74.49 138.65"/><rect class="cls-3" x="73.03" y="139.87" width="1.45" height="26.81"/><rect class="cls-3" x="73.03" y="138.65" width="1.45" height="1.22"/><polygon class="cls-3" points="37.8 138.65 39.25 138.65 39.25 137.43 36.34 137.43 36.34 138.65 37.8 138.65"/><rect class="cls-3" x="36.34" y="139.87" width="1.45" height="26.81"/><rect class="cls-3" x="36.34" y="138.65" width="1.45" height="1.22"/><rect class="cls-3" x="57.06" y="138.65" width="14.52" height="1.22"/><rect class="cls-3" x="39.25" y="138.65" width="14.9" height="1.22"/><polygon class="cls-3" points="57.05 139.87 57.05 138.65 55.6 138.65 54.15 138.65 54.15 139.87 57.05 139.87"/><rect class="cls-3" x="71.58" y="139.87" width="1.45" height="26.81"/><rect class="cls-3" x="71.58" y="138.65" width="1.45" height="1.22"/><rect class="cls-3" x="37.8" y="139.87" width="1.45" height="26.81"/><rect class="cls-3" x="37.8" y="138.65" width="1.45" height="1.22"/><polygon class="cls-5" points="162.02 139.87 159.11 139.87 144.59 139.87 144.59 166.68 158.92 166.68 161.83 166.68 163.8 166.68 176.54 159.33 176.54 139.87 162.02 139.87"/><polygon class="cls-3" points="178.21 139.87 178.21 158.36 179.45 157.65 179.45 139.87 178.21 139.87"/><polygon class="cls-3" points="177.99 158.49 178.21 158.36 178.21 139.87 177.99 139.87 177.99 158.49"/><rect class="cls-3" x="144.58" y="137.43" width="14.52" height="1.22"/><polygon class="cls-3" points="178.21 137.43 178.21 138.65 178.21 139.87 179.45 139.87 179.45 137.43 178.21 137.43"/><rect class="cls-3" x="177.99" y="138.65" width="0.21" height="1.22"/><rect class="cls-3" x="159.11" y="137.43" width="1.45" height="1.22"/><polygon class="cls-3" points="162.02 137.43 162.02 138.65 177.99 138.65 178.21 138.65 178.21 137.43 176.75 137.43 162.02 137.43"/><rect class="cls-3" x="160.56" y="137.43" width="1.45" height="1.22"/><polygon class="cls-3" points="144.59 138.65 144.59 137.43 141.68 137.43 141.68 138.65 143.13 138.65 144.59 138.65"/><rect class="cls-3" x="141.68" y="139.87" width="1.45" height="26.81"/><rect class="cls-3" x="141.68" y="138.65" width="1.45" height="1.22"/><polygon class="cls-3" points="176.54 159.33 177.99 158.49 177.99 139.87 176.54 139.87 176.54 159.33"/><rect class="cls-3" x="144.58" y="138.65" width="14.52" height="1.22"/><polygon class="cls-3" points="162.02 139.87 176.54 139.87 177.99 139.87 177.99 138.65 162.02 138.65 162.02 139.87"/><polygon class="cls-3" points="159.11 138.65 159.11 139.87 162.02 139.87 162.02 138.65 160.56 138.65 159.11 138.65"/><rect class="cls-3" x="143.13" y="139.87" width="1.45" height="26.81"/><rect class="cls-3" x="143.13" y="138.65" width="1.45" height="1.22"/><polygon class="cls-4" points="71.77 195.93 74.67 195.93 88.82 195.93 88.82 169.12 74.49 169.12 71.58 169.12 56.87 169.12 56.87 189.58 60.36 191.6 69.3 195.93 71.77 195.93"/><rect class="cls-3" x="74.49" y="166.68" width="14.34" height="1.22"/><rect class="cls-3" x="73.03" y="166.68" width="1.45" height="1.22"/><rect class="cls-3" x="56.87" y="166.68" width="14.71" height="1.22"/><rect class="cls-3" x="71.58" y="166.68" width="1.45" height="1.22"/><polygon class="cls-3" points="60.36 191.6 67.86 195.93 69.3 195.93 60.36 191.6"/><rect class="cls-3" x="74.49" y="167.9" width="14.34" height="1.22"/><rect class="cls-3" x="56.87" y="167.9" width="14.71" height="1.22"/><polygon class="cls-3" points="73.03 167.9 71.58 167.9 71.58 169.12 74.49 169.12 74.49 167.9 73.03 167.9"/><path class="cls-6" d="M109.35,169.12H91.73v26.81h19.89l9.41-4.56,3-1.75v-20.5ZM107,186.82h-1.53l-3.74-5a31.42,31.42,0,0,1-2.2-3.29h0c.09,1.25.12,2.43.12,4.07v4.22H98.14V177H99.8l3.77,5a27.78,27.78,0,0,1,2.11,3.21h0a36.77,36.77,0,0,1-.18-4.06V177H107Zm8.73-3.1h-4.17l-1.23,3.1h-1.57l4-9.87h1.83l4,9.87H117Z" transform="translate(0 0)"/><path class="cls-7" d="M113.62,178.08h0c-.18.58-.37,1.18-.6,1.78l-1.15,2.86h3.54l-1.15-2.84C114,179.23,113.79,178.65,113.62,178.08Z" transform="translate(0 0)"/><rect class="cls-3" x="91.73" y="166.68" width="14.71" height="1.22"/><rect class="cls-3" x="106.44" y="166.68" width="1.45" height="1.22"/><rect class="cls-3" x="109.35" y="166.68" width="14.71" height="1.22"/><rect class="cls-3" x="107.89" y="166.68" width="1.45" height="1.22"/><polygon class="cls-3" points="88.82 166.68 88.82 167.9 90.28 167.9 91.73 167.9 91.73 166.68 88.82 166.68"/><rect class="cls-3" x="88.82" y="169.12" width="1.45" height="26.81"/><rect class="cls-3" x="88.82" y="167.9" width="1.45" height="1.22"/><polygon class="cls-3" points="113.14 195.93 121.03 191.38 111.62 195.93 113.14 195.93"/><rect class="cls-3" x="91.73" y="167.9" width="14.71" height="1.22"/><rect class="cls-3" x="109.35" y="167.9" width="14.71" height="1.22"/><polygon class="cls-3" points="107.89 167.9 106.44 167.9 106.44 169.12 109.35 169.12 109.35 167.9 107.89 167.9"/><rect class="cls-3" x="90.28" y="169.12" width="1.45" height="26.81"/><rect class="cls-3" x="90.28" y="167.9" width="1.45" height="1.22"/><polygon class="cls-3" points="17.2 166.68 18.73 167.56 18.73 166.68 17.2 166.68"/><polygon class="cls-5" points="39.25 169.12 36.34 169.12 21.63 169.12 21.63 169.24 53.96 187.9 53.96 169.12 39.25 169.12"/><rect class="cls-3" x="21.63" y="166.68" width="14.71" height="1.22"/><rect class="cls-3" x="36.34" y="166.68" width="1.45" height="1.22"/><rect class="cls-3" x="39.25" y="166.68" width="14.71" height="1.22"/><rect class="cls-3" x="37.8" y="166.68" width="1.45" height="1.22"/><polygon class="cls-3" points="53.96 166.68 53.96 167.9 55.41 167.9 56.87 167.9 56.87 166.68 53.96 166.68"/><polygon class="cls-3" points="55.41 169.12 55.41 188.74 56.87 189.58 56.87 169.12 55.41 169.12"/><rect class="cls-3" x="55.41" y="167.9" width="1.45" height="1.22"/><polygon class="cls-3" points="20.18 167.9 21.63 167.9 21.63 166.68 18.73 166.68 18.73 167.56 19.31 167.9 20.18 167.9"/><polygon class="cls-3" points="20.18 168.4 20.18 167.9 19.31 167.9 20.18 168.4"/><rect class="cls-3" x="21.63" y="167.9" width="14.71" height="1.22"/><rect class="cls-3" x="39.25" y="167.9" width="14.71" height="1.22"/><polygon class="cls-3" points="37.8 167.9 36.34 167.9 36.34 169.12 39.25 169.12 39.25 167.9 37.8 167.9"/><polygon class="cls-3" points="53.96 169.12 53.96 187.9 55.41 188.74 55.41 169.12 53.96 169.12"/><rect class="cls-3" x="53.96" y="167.9" width="1.45" height="1.22"/><polygon class="cls-3" points="21.42 169.12 21.63 169.24 21.63 169.12 21.42 169.12"/><polygon class="cls-3" points="21.63 167.9 20.18 167.9 20.18 168.4 21.42 169.12 21.63 169.12 21.63 167.9"/><polygon class="cls-5" points="144.59 169.12 141.68 169.12 126.97 169.12 126.97 187.95 158.92 169.5 158.92 169.12 144.59 169.12"/><rect class="cls-3" x="126.97" y="166.68" width="14.71" height="1.22"/><rect class="cls-3" x="141.68" y="166.68" width="1.45" height="1.22"/><rect class="cls-3" x="144.58" y="166.68" width="14.34" height="1.22"/><rect class="cls-3" x="143.13" y="166.68" width="1.45" height="1.22"/><polygon class="cls-3" points="124.06 166.68 124.06 167.9 125.51 167.9 126.97 167.9 126.97 166.68 124.06 166.68"/><polygon class="cls-3" points="124.06 169.12 124.06 189.63 125.51 188.79 125.51 169.12 124.06 169.12"/><rect class="cls-3" x="124.06" y="167.9" width="1.45" height="1.22"/><rect class="cls-3" x="126.97" y="167.9" width="14.71" height="1.22"/><rect class="cls-3" x="144.58" y="167.9" width="14.34" height="1.22"/><polygon class="cls-3" points="143.13 167.9 141.68 167.9 141.68 169.12 144.59 169.12 144.59 167.9 143.13 167.9"/><polygon class="cls-3" points="125.51 169.12 125.51 188.79 126.97 187.95 126.97 169.12 125.51 169.12"/><rect class="cls-3" x="125.51" y="167.9" width="1.45" height="1.22"/><polygon class="cls-3" points="161.83 167.82 163.8 166.68 161.83 166.68 161.83 167.82"/><polygon class="cls-3" points="158.92 166.68 158.92 167.9 160.38 167.9 161.69 167.9 161.83 167.82 161.83 166.68 158.92 166.68"/><polygon class="cls-3" points="158.92 169.5 159.58 169.12 158.92 169.12 158.92 169.5"/><polygon class="cls-3" points="160.38 167.9 158.92 167.9 158.92 169.12 159.58 169.12 160.38 168.66 160.38 167.9"/><polygon class="cls-3" points="161.69 167.9 160.38 167.9 160.38 168.66 161.69 167.9"/><polygon class="cls-4" points="88.82 198.37 74.67 198.37 74.67 198.53 90.46 206.18 106.59 198.37 91.73 198.37 88.82 198.37"/><rect class="cls-3" x="74.67" y="195.93" width="14.15" height="1.22"/><rect class="cls-3" x="88.82" y="195.93" width="1.45" height="1.22"/><rect class="cls-3" x="91.73" y="195.93" width="14.9" height="1.22"/><rect class="cls-3" x="90.28" y="195.93" width="1.45" height="1.22"/><polygon class="cls-3" points="106.63 198.37 106.59 198.37 90.46 206.18 74.67 198.53 74.67 199.86 75.52 200.35 90.46 207.59 105.86 200.13 106.63 199.69 106.63 198.37"/><rect class="cls-3" x="74.67" y="197.15" width="14.15" height="1.22"/><polygon class="cls-3" points="91.73 197.15 91.73 198.37 106.59 198.37 106.63 198.37 106.63 197.15 91.73 197.15"/><polygon class="cls-3" points="88.82 197.15 88.82 198.37 91.73 198.37 91.73 197.15 90.28 197.15 88.82 197.15"/><polygon class="cls-3" points="109.53 195.93 109.53 197.15 111.02 197.15 113.14 195.93 111.62 195.93 109.53 195.93"/><polygon class="cls-3" points="108.08 197.15 109.53 197.15 109.53 195.93 106.63 195.93 106.63 197.15 108.08 197.15"/><polygon class="cls-3" points="106.63 198.37 106.63 199.69 108.08 198.85 108.08 198.37 106.63 198.37"/><rect class="cls-3" x="106.63" y="197.15" width="1.45" height="1.22"/><polygon class="cls-3" points="109.53 198.01 111.02 197.15 109.53 197.15 109.53 198.01"/><polygon class="cls-3" points="108.08 198.85 108.91 198.37 108.08 198.37 108.08 198.85"/><polygon class="cls-3" points="108.08 197.15 108.08 198.37 108.91 198.37 109.53 198.01 109.53 197.15 108.08 197.15"/><polygon class="cls-3" points="71.77 195.93 69.3 195.93 67.86 195.93 69.98 197.15 71.77 197.15 71.77 195.93"/><polygon class="cls-3" points="74.67 195.93 71.77 195.93 71.77 197.15 73.22 197.15 74.67 197.15 74.67 195.93"/><polygon class="cls-3" points="73.22 198.37 73.22 199.02 74.67 199.86 74.67 198.53 74.67 198.37 73.22 198.37"/><rect class="cls-3" x="73.22" y="197.15" width="1.45" height="1.22"/><polygon class="cls-3" points="69.98 197.15 71.77 198.18 71.77 197.15 69.98 197.15"/><polygon class="cls-3" points="72.09 198.37 73.22 199.02 73.22 198.37 72.09 198.37"/><polygon class="cls-3" points="73.22 197.15 71.77 197.15 71.77 198.18 72.09 198.37 73.22 198.37 73.22 197.15"/><polygon class="cls-4" points="106.65 108.18 106.65 81.36 74.7 81.36 74.7 108.18 89.01 108.18 91.92 108.18 106.65 108.18"/><polygon class="cls-3" points="73.25 80.14 108.11 80.14 108.11 108.18 109.56 108.18 109.56 78.92 71.79 78.92 71.79 108.18 73.25 108.18 73.25 80.14"/><rect class="cls-3" x="71.79" y="108.18" width="1.45" height="1.22"/><polygon class="cls-3" points="89.01 110.62 89.01 109.4 73.25 109.4 71.79 109.4 71.79 110.62 89.01 110.62"/><rect class="cls-3" x="108.11" y="108.18" width="1.45" height="1.22"/><rect class="cls-3" x="89.01" y="109.4" width="1.45" height="1.22"/><polygon class="cls-3" points="91.92 110.62 109.56 110.62 109.56 109.4 108.11 109.4 91.92 109.4 91.92 110.62"/><rect class="cls-3" x="90.46" y="109.4" width="1.45" height="1.22"/><polygon class="cls-3" points="74.7 81.36 106.65 81.36 106.65 108.18 108.11 108.18 108.11 80.14 73.25 80.14 73.25 108.18 74.7 108.18 74.7 81.36"/><polygon class="cls-3" points="89.01 108.18 74.7 108.18 73.25 108.18 73.25 109.4 89.01 109.4 89.01 108.18"/><polygon class="cls-3" points="91.92 108.18 91.92 109.4 108.11 109.4 108.11 108.18 106.65 108.18 91.92 108.18"/><polygon class="cls-3" points="91.92 109.4 91.92 108.18 89.01 108.18 89.01 109.4 90.46 109.4 91.92 109.4"/><polygon class="cls-2" points="36.56 108.18 36.56 81.36 4.6 81.36 4.6 108.18 18.91 108.18 21.82 108.18 36.56 108.18"/><polygon class="cls-3" points="3.15 80.14 38.01 80.14 38.01 108.18 39.47 108.18 39.47 78.92 1.69 78.92 1.69 108.18 3.15 108.18 3.15 80.14"/><polygon class="cls-3" points="2.72 110.62 2.72 109.4 3.15 109.4 3.15 108.18 1.69 108.18 1.69 110.62 2.72 110.62"/><polygon class="cls-3" points="18.91 110.62 18.91 109.4 3.15 109.4 2.72 109.4 2.72 110.62 4.17 110.62 18.91 110.62"/><rect class="cls-3" x="38.01" y="108.18" width="1.45" height="1.22"/><rect class="cls-3" x="18.91" y="109.4" width="1.45" height="1.22"/><polygon class="cls-3" points="21.82 110.62 39.47 110.62 39.47 109.4 38.01 109.4 21.82 109.4 21.82 110.62"/><rect class="cls-3" x="20.37" y="109.4" width="1.45" height="1.22"/><polygon class="cls-3" points="4.6 81.36 36.56 81.36 36.56 108.18 38.01 108.18 38.01 80.14 3.15 80.14 3.15 108.18 4.6 108.18 4.6 81.36"/><polygon class="cls-3" points="18.91 108.18 4.6 108.18 3.15 108.18 3.15 109.4 18.91 109.4 18.91 108.18"/><polygon class="cls-3" points="21.82 108.18 21.82 109.4 38.01 109.4 38.01 108.18 36.56 108.18 21.82 108.18"/><polygon class="cls-3" points="21.82 109.4 21.82 108.18 18.91 108.18 18.91 109.4 20.37 109.4 21.82 109.4"/><polygon class="cls-3" points="179.66 80.14 179.66 80.14 179.66 94.77 179.66 80.14"/><polygon class="cls-3" points="179.66 109.4 179.66 109.4 179.66 94.77 179.66 108.18 179.66 109.4"/><polygon class="cls-2" points="176.75 108.18 176.75 81.36 144.8 81.36 144.8 108.18 159.11 108.18 162.02 108.18 176.75 108.18"/><polygon class="cls-3" points="143.34 80.14 176.75 80.14 178.21 80.14 178.21 80.14 179.66 80.14 179.66 78.92 141.89 78.92 141.89 108.18 143.34 108.18 143.34 80.14"/><rect class="cls-3" x="141.89" y="108.18" width="1.45" height="1.22"/><polygon class="cls-3" points="159.11 110.62 159.11 109.4 143.34 109.4 141.89 109.4 141.89 110.62 159.11 110.62"/><rect class="cls-3" x="178.21" y="109.4" width="1.45" height="1.22"/><rect class="cls-3" x="159.11" y="109.4" width="1.45" height="1.22"/><polygon class="cls-3" points="176.75 109.4 162.02 109.4 162.02 110.62 176.75 110.62 178.21 110.62 178.21 109.4 176.75 109.4 176.75 109.4"/><rect class="cls-3" x="160.56" y="109.4" width="1.45" height="1.22"/><polygon class="cls-3" points="178.21 108.18 179.66 108.18 179.66 94.77 179.66 80.14 178.21 80.14 178.21 108.18"/><polygon class="cls-3" points="178.21 108.18 178.21 109.4 178.21 109.4 178.21 109.4 179.66 109.4 179.66 108.18 178.21 108.18"/><rect class="cls-3" x="176.75" y="109.4" width="1.45"/><rect class="cls-3" x="178.21" y="80.14" height="28.03"/><rect class="cls-3" x="178.21" y="108.18" height="1.22"/><polygon class="cls-3" points="144.8 81.36 176.75 81.36 176.75 108.18 176.75 108.18 176.75 80.14 143.34 80.14 143.34 108.18 144.8 108.18 144.8 81.36"/><polygon class="cls-3" points="159.11 108.18 144.8 108.18 143.34 108.18 143.34 109.4 159.11 109.4 159.11 108.18"/><polygon class="cls-3" points="162.02 109.4 176.75 109.4 176.75 108.18 176.75 108.18 162.02 108.18 162.02 109.4"/><polygon class="cls-3" points="162.02 109.4 162.02 108.18 159.11 108.18 159.11 109.4 160.56 109.4 162.02 109.4"/><rect class="cls-3" x="176.75" y="80.14" width="1.45" height="28.03"/><rect class="cls-3" x="176.75" y="108.18" width="1.45" height="1.22"/><path class="cls-4" d="M105.54,181.08a36.77,36.77,0,0,0,.18,4.06h0a27.78,27.78,0,0,0-2.11-3.21l-3.77-5H98.14v9.87h1.43V182.6c0-1.64,0-2.82-.12-4.07h0a31.42,31.42,0,0,0,2.2,3.29l3.74,5H107V177h-1.43Z" transform="translate(0 0)"/><path class="cls-4" d="M114.56,177h-1.83l-4,9.87h1.57l1.23-3.1h4.17l1.25,3.1h1.63Zm-2.72,5.77,1.15-2.86c.23-.6.42-1.2.6-1.78h0c.17.57.35,1.15.61,1.8l1.15,2.84Z" transform="translate(0 0)"/><path class="cls-4" d="M47.09,153.35c0-1.64,0-2.82-.12-4.07H47a29.93,29.93,0,0,0,2.2,3.29l3.74,5h1.53V147.7H53.06v4.13a36.77,36.77,0,0,0,.18,4.06h0a27.78,27.78,0,0,0-2.11-3.21l-3.77-5H45.66v9.87h1.43Z" transform="translate(0 0)"/><path class="cls-4" d="M59.05,154.47h4.17l1.25,3.1H66.1l-4-9.87H60.25l-4,9.87h1.57Zm1.46-3.86c.23-.6.42-1.2.59-1.78h0c.17.57.35,1.15.61,1.8l1.15,2.84H59.36Z" transform="translate(0 0)"/></g><g id="Borde_2" data-name="Borde 2"><path class="cls-8" d="M90.5,209,0,156.75V52.25L90.5,0,181,52.25v104.5ZM4.87,153.94,90.5,203.38l85.63-49.44V55.06L90.5,5.62,4.87,55.06Z" transform="translate(0 0)"/></g><g id="Capa_9" data-name="Capa 9"><text class="cls-9" transform="translate(34.48 64.36)">empi<tspan class="cls-10" x="80.08" y="0">r</tspan><tspan x="92.57" y="0">e</tspan></text></g></svg>